<svg width="144" height="48" viewBox="0 0 144 48" fill="none" xmlns="http://www.w3.org/2000/svg">
<path d="M132.533 0.000155999H11.4737C11.0325 0.000155999 10.5965 0.000156 10.1564 0.00255599C9.78796 0.00495598 9.42249 0.011928 9.05054 0.0177959C8.24249 0.0272781 7.43635 0.0981672 6.63911 0.229847C5.84299 0.364394 5.07181 0.618053 4.35165 0.982245C3.63237 1.34952 2.97514 1.82675 2.40381 2.39663C1.82948 2.96491 1.35074 3.62176 0.98598 4.34193C0.620217 5.06067 0.366595 5.83086 0.233875 6.62591C0.0998928 7.41995 0.0277959 8.22315 0.018231 9.0283C0.00706377 9.39622 0.00588447 9.76536 0 10.1333V37.8704C0.00588447 38.243 0.00706377 38.6039 0.018231 38.9766C0.0277988 39.7817 0.0998957 40.5849 0.233875 41.3789C0.366228 42.1744 0.619865 42.945 0.98598 43.6641C1.35057 44.3819 1.82939 45.0361 2.40381 45.6012C2.97298 46.1736 3.63063 46.6512 4.35165 47.0156C5.0718 47.3808 5.8429 47.636 6.63911 47.7726C7.43648 47.9032 8.24254 47.9741 9.05054 47.9848C9.42249 47.9929 9.78796 47.9976 10.1564 47.9976C10.5965 48 11.0325 48 11.4737 48H132.533C132.965 48 133.405 48 133.837 47.9976C134.204 47.9976 134.58 47.9929 134.947 47.9848C135.753 47.9747 136.558 47.9038 137.353 47.7726C138.152 47.635 138.926 47.3799 139.65 47.0156C140.37 46.651 141.027 46.1734 141.596 45.6012C142.169 45.0339 142.648 44.3802 143.018 43.6641C143.381 42.9445 143.632 42.174 143.763 41.3789C143.897 40.5848 143.971 39.7818 143.986 38.9766C143.991 38.6039 143.991 38.243 143.991 37.8704C144 37.4344 144 37.0008 144 36.5578V11.4435C144 11.004 144 10.5681 143.991 10.1333C143.991 9.76536 143.991 9.39622 143.986 9.02825C143.971 8.22304 143.897 7.42001 143.763 6.62586C143.632 5.83128 143.381 5.06114 143.018 4.34189C142.275 2.89838 141.097 1.72338 139.65 0.982137C138.926 0.618835 138.152 0.365243 137.353 0.229739C136.558 0.097479 135.753 0.0265652 134.947 0.0176279C134.58 0.011772 134.204 0.00473998 133.837 0.00239999C133.405 0 132.965 0 132.533 0V0.000155999Z" fill="#A6A6A6"/>
<path d="M10.1625 46.95C9.79583 46.95 9.43805 46.9453 9.07428 46.9372C8.32071 46.9274 7.5689 46.862 6.82501 46.7415C6.13138 46.6223 5.45944 46.4007 4.83134 46.084C4.20901 45.7699 3.6414 45.358 3.15024 44.8641C2.65197 44.376 2.23714 43.8099 1.92219 43.1883C1.60376 42.5626 1.3834 41.8919 1.26876 41.1996C1.14496 40.4558 1.07798 39.7036 1.0684 38.9496C1.06077 38.6966 1.05078 37.8539 1.05078 37.8539V10.1333C1.05078 10.1333 1.06142 9.30366 1.06846 9.05991C1.07764 8.30713 1.14423 7.55613 1.26765 6.81343C1.3825 6.11925 1.60304 5.44666 1.92164 4.81891C2.23543 4.19769 2.64796 3.63119 3.14322 3.14138C3.63793 2.64691 4.20736 2.23289 4.83075 1.91442C5.4574 1.59868 6.12808 1.37865 6.82031 1.26169C7.56663 1.13997 8.32106 1.07417 9.07724 1.06482L10.1631 1.05017H133.832L134.93 1.06541C135.68 1.07429 136.427 1.13951 137.167 1.26052C137.866 1.37894 138.544 1.60051 139.177 1.91794C140.426 2.55975 141.442 3.57516 142.083 4.82184C142.397 5.44525 142.614 6.11236 142.728 6.80054C142.852 7.54934 142.922 8.30623 142.937 9.06518C142.94 9.40502 142.94 9.77006 142.94 10.1333C142.95 10.5833 142.95 11.0117 142.95 11.4435V36.5578C142.95 36.9938 142.95 37.4192 142.94 37.8481C142.94 38.2383 142.94 38.5958 142.935 38.9637C142.921 39.7091 142.853 40.4525 142.73 41.1879C142.618 41.8852 142.398 42.5611 142.08 43.1919C141.763 43.8068 141.35 44.368 140.858 44.8547C140.366 45.3512 139.798 45.7656 139.174 46.0817C138.542 46.4009 137.865 46.6233 137.167 46.7415C136.423 46.8626 135.671 46.928 134.917 46.9372C134.565 46.9453 134.196 46.95 133.837 46.95L132.533 46.9524L10.1625 46.95Z" fill="black"/>
<path d="M29.8061 24.3609C29.8324 22.3251 30.9027 20.4447 32.6419 19.3784C31.5397 17.8087 29.7598 16.8491 27.8391 16.7892C25.8184 16.5777 23.8593 17.995 22.8296 17.995C21.7799 17.995 20.1945 16.8102 18.4872 16.8452C16.2409 16.9176 14.1975 18.1603 13.1047 20.1187C10.7774 24.1368 12.5133 30.042 14.7427 33.2899C15.8581 34.8803 17.1617 36.6569 18.8674 36.5939C20.5365 36.5248 21.1599 35.5325 23.1747 35.5325C25.1708 35.5325 25.7557 36.5939 27.496 36.5538C29.2871 36.5248 30.4156 34.9563 31.4918 33.3509C32.2933 32.2176 32.9099 30.9652 33.3191 29.6399C31.1918 28.7427 29.8086 26.6641 29.8061 24.3609V24.3609Z" fill="white"/>
<path d="M26.5191 14.6532C27.4957 13.4842 27.9768 11.9816 27.8603 10.4645C26.3683 10.6207 24.9902 11.3318 24.0004 12.456C23.0231 13.5652 22.5279 15.0163 22.6241 16.4897C24.1361 16.5052 25.5717 15.8283 26.5191 14.6532V14.6532Z" fill="white"/>
<path fill-rule="evenodd" clip-rule="evenodd" d="M45.2092 32.5676H50.9052L52.2719 36.5953H54.7257L49.3305 21.6937H46.8239L41.4287 36.5953H43.8413L45.2092 32.5676ZM50.3142 30.709H45.7991L48.0261 24.1723H48.0884L50.3142 30.709Z" fill="white"/>
<path fill-rule="evenodd" clip-rule="evenodd" d="M61.8308 36.709C64.5654 36.709 66.3775 34.5399 66.3775 31.1637C66.3775 27.7969 64.5548 25.6173 61.7897 25.6172C60.3668 25.5715 59.0339 26.3094 58.3206 27.5379H58.2794V25.7309H56.1147V40.1895H58.3511V34.8082H58.4028C59.0859 36.0445 60.4173 36.7827 61.8308 36.709ZM61.1997 27.518C62.939 27.518 64.0789 28.9641 64.0789 31.1637C64.0789 33.3832 62.939 34.8188 61.1997 34.8188C59.491 34.8188 58.3417 33.3528 58.3417 31.1637C58.3417 28.9946 59.491 27.518 61.1997 27.518Z" fill="white"/>
<path fill-rule="evenodd" clip-rule="evenodd" d="M73.822 36.709C76.5566 36.709 78.3687 34.5399 78.3687 31.1637C78.3687 27.7969 76.546 25.6172 73.7808 25.6172C72.358 25.5715 71.0251 26.3094 70.3117 27.5379H70.2706V25.7309H68.106V40.1894H70.3423V34.8082H70.394C71.0771 36.0445 72.4085 36.7827 73.822 36.709ZM73.1909 27.518C74.9302 27.518 76.0701 28.9641 76.0701 31.1637H76.0701C76.0701 33.3832 74.9302 34.8188 73.1909 34.8188C71.4822 34.8188 70.3329 33.3528 70.3329 31.1637C70.3329 28.9946 71.4822 27.518 73.1909 27.518Z" fill="white"/>
<path d="M86.2941 32.4434C86.4598 33.9211 87.8994 34.8914 89.8666 34.8914C91.7516 34.8914 93.1077 33.9211 93.1077 32.5886C93.1077 31.432 92.2898 30.7395 90.3532 30.2648L88.4165 29.7996C85.6725 29.1387 84.3986 27.859 84.3986 25.7824C84.3986 23.2113 86.6455 21.4453 89.8361 21.4453C92.9937 21.4453 95.1584 23.2113 95.2313 25.7824H92.9737C92.8386 24.2953 91.6059 23.3977 89.8043 23.3977C88.0028 23.3977 86.7701 24.3059 86.7701 25.6277C86.7701 26.6812 87.5574 27.3012 89.4835 27.7757L91.1299 28.1789C94.1959 28.9019 95.4698 30.13 95.4698 32.3097C95.4698 35.0976 93.2429 36.8437 89.7009 36.8437C86.3869 36.8437 84.1494 35.1386 84.0049 32.4433L86.2941 32.4434Z" fill="white"/>
<path d="M100.296 23.1598V25.7309H102.368V27.4969H100.296V33.4863C100.296 34.4168 100.711 34.8504 101.622 34.8504C101.868 34.8461 102.113 34.8289 102.358 34.7988V36.5542C101.948 36.6305 101.532 36.6651 101.115 36.6574C98.9097 36.6574 98.0494 35.8312 98.0494 33.7242V27.4969H96.4653V25.7309H98.0494V23.1598H100.296Z" fill="white"/>
<path fill-rule="evenodd" clip-rule="evenodd" d="M108.735 25.5973C105.587 25.5973 103.568 27.7453 103.568 31.1637C103.568 34.5914 105.567 36.7301 108.735 36.7301C111.904 36.7301 113.903 34.5914 113.903 31.1637C113.903 27.7453 111.894 25.5973 108.735 25.5973ZM108.735 27.4348C110.547 27.4348 111.625 28.8188 111.625 31.1637H111.625C111.625 33.518 110.547 34.8914 108.735 34.8914C106.923 34.8914 105.847 33.518 105.847 31.1637C105.847 28.8293 106.923 27.4348 108.735 27.4348Z" fill="white"/>
<path d="M115.747 25.731H117.88V27.5801H117.932C118.229 26.3897 119.323 25.5705 120.552 25.6173C120.81 25.6164 121.067 25.6443 121.319 25.7005V27.7864C120.993 27.6873 120.654 27.6417 120.314 27.6516C119.656 27.625 119.02 27.8863 118.572 28.3669C118.124 28.8475 117.909 29.4993 117.983 30.1512V36.5954H115.747L115.747 25.731Z" fill="white"/>
<path fill-rule="evenodd" clip-rule="evenodd" d="M126.938 36.7301C129.403 36.7301 131.329 35.3766 131.63 33.4043L129.506 33.4043C129.099 34.4124 128.075 35.0338 126.99 34.9324C126.176 34.9623 125.389 34.6421 124.828 34.0533C124.267 33.4645 123.987 32.6639 124.059 31.8551V31.7203H131.754V30.9563C131.754 27.6621 129.859 25.5973 126.844 25.5973C123.78 25.5973 121.802 27.8074 121.802 31.2152C121.802 34.6125 123.769 36.7301 126.938 36.7301ZM129.517 30.1617L124.07 30.1617C124.068 29.4282 124.36 28.7243 124.881 28.2065C125.402 27.6887 126.109 27.3999 126.844 27.4043C127.574 27.3887 128.277 27.6774 128.785 28.2008C129.292 28.7242 129.557 29.4349 129.517 30.1617Z" fill="white"/>
<path fill-rule="evenodd" clip-rule="evenodd" d="M48.0527 11.4587C47.3982 10.7695 46.4683 10.4093 45.5189 10.4773H42.9253V17.6374H45.5189C47.6577 17.6374 48.8975 16.3225 48.8975 14.035C49.0172 13.0934 48.7071 12.1479 48.0527 11.4587ZM45.3943 16.6248H44.0405V11.4891H45.3943C46.0692 11.4518 46.7255 11.7171 47.1837 12.2126C47.6419 12.7081 47.8541 13.3819 47.7623 14.0496C47.8613 14.7202 47.6522 15.3996 47.1928 15.8991C46.7334 16.3987 46.0728 16.6653 45.3943 16.6248Z" fill="white"/>
<path fill-rule="evenodd" clip-rule="evenodd" d="M51.359 12.5144C50.53 13.0274 50.0642 13.9647 50.1571 14.9333C50.0625 15.9029 50.5278 16.842 51.3575 17.3561C52.1873 17.8703 53.2378 17.8703 54.0675 17.3561C54.8973 16.842 55.3626 15.9029 55.2679 14.9333C55.3609 13.9647 54.8951 13.0274 54.0661 12.5144C53.2371 12.0014 52.188 12.0014 51.359 12.5144ZM52.7143 13.077C53.6403 13.077 54.168 13.762 54.168 14.9333H54.168C54.168 16.1093 53.6403 16.7936 52.7143 16.7936C51.7848 16.7936 51.2618 16.114 51.2618 14.9333C51.2618 13.762 51.7848 13.077 52.7143 13.077Z" fill="white"/>
<path d="M62.0616 17.6374H60.9522L59.8323 13.6577H59.7477L58.6325 17.6374H57.5337L56.04 12.2339H57.1247L58.0954 16.3571H58.1753L59.2894 12.2339H60.3153L61.4293 16.3571H61.514L62.4799 12.2339H63.5493L62.0616 17.6374Z" fill="white"/>
<path d="M64.8057 12.2339H65.8351V13.0923H65.915C66.1929 12.4603 66.8423 12.0737 67.5321 12.1296C68.0661 12.0896 68.5895 12.2939 68.9544 12.6849C69.3192 13.0758 69.486 13.611 69.4076 14.1394V17.6374H68.3382V14.4072C68.3382 13.5388 67.9598 13.107 67.1689 13.107C66.8067 13.0901 66.4551 13.2319 66.2064 13.4951C65.9577 13.7583 65.8367 14.1167 65.8751 14.4763V17.6374H64.8057L64.8057 12.2339Z" fill="white"/>
<path d="M71.1114 10.1245H72.1808V17.6374H71.1114V10.1245Z" fill="white"/>
<path fill-rule="evenodd" clip-rule="evenodd" d="M74.8694 12.5143C74.0403 13.0273 73.5745 13.9647 73.6674 14.9333C73.5728 15.9029 74.0382 16.842 74.868 17.3561C75.6978 17.8702 76.7483 17.8702 77.5781 17.3561C78.4079 16.842 78.8733 15.9029 78.7788 14.9333C78.8716 13.9647 78.4058 13.0273 77.5767 12.5143C76.7476 12.0013 75.6985 12.0013 74.8694 12.5143ZM76.2245 13.077C77.1505 13.077 77.6782 13.762 77.6782 14.9333H77.6782C77.6782 16.1092 77.1506 16.7936 76.2245 16.7936C75.295 16.7936 74.7721 16.1139 74.7721 14.9333C74.7721 13.762 75.295 13.077 76.2245 13.077Z" fill="white"/>
<path fill-rule="evenodd" clip-rule="evenodd" d="M81.9202 14.4962C80.631 14.5759 79.9048 15.1366 79.9048 16.1093C79.9066 16.5705 80.104 17.0094 80.4481 17.3175C80.7922 17.6256 81.251 17.7742 81.711 17.7265C82.3672 17.7567 82.989 17.4326 83.3386 16.8781H83.4232V17.6374H84.4527V13.9454C84.4527 12.804 83.6865 12.1296 82.328 12.1296C81.0988 12.1296 80.2233 12.7249 80.114 13.6531H81.1493C81.268 13.271 81.6816 13.0525 82.2786 13.0525C83.0096 13.0525 83.388 13.3747 83.388 13.9454V14.4119L81.9202 14.4962ZM83.388 15.1958V15.6476C83.3646 15.992 83.202 16.3121 82.9375 16.5348C82.673 16.7575 82.3293 16.8636 81.9849 16.8288C81.4031 16.8288 80.9801 16.5458 80.9801 16.0595C80.9801 15.5831 81.3185 15.33 82.0647 15.2802L83.388 15.1958Z" fill="white"/>
<path fill-rule="evenodd" clip-rule="evenodd" d="M88.1077 12.1442C86.7386 12.1442 85.8584 13.2259 85.8584 14.9333C85.8584 16.6448 86.7292 17.7265 88.1077 17.7264C88.8065 17.7521 89.462 17.389 89.8093 16.7837H89.8939V17.6374H90.9187V10.1245H89.8493V13.0922H89.7693C89.4464 12.4819 88.799 12.1125 88.1077 12.1442ZM88.4109 16.769C87.5048 16.769 86.9631 16.0794 86.9631 14.9333H86.9631C86.9631 13.7966 87.5107 13.1023 88.4109 13.1023C89.3064 13.1023 89.8693 13.8118 89.8693 14.938C89.8693 16.0694 89.3122 16.769 88.4109 16.769Z" fill="white"/>
<path fill-rule="evenodd" clip-rule="evenodd" d="M96.5445 12.5144C95.7155 13.0274 95.2498 13.9647 95.3427 14.9333C95.248 15.9029 95.7133 16.842 96.5431 17.3561C97.3729 17.8703 98.4233 17.8703 99.2531 17.3561C100.083 16.842 100.548 15.9029 100.453 14.9333C100.546 13.9647 100.081 13.0274 99.2516 12.5144C98.4226 12.0014 97.3736 12.0014 96.5445 12.5144ZM97.8999 13.077C98.8259 13.077 99.3535 13.762 99.3535 14.9333C99.3535 16.1093 98.8259 16.7936 97.8999 16.7936C96.9703 16.7936 96.4474 16.114 96.4474 14.9333C96.4474 13.762 96.9703 13.077 97.8999 13.077Z" fill="white"/>
<path d="M101.889 12.2339H102.918V13.0923H102.998C103.276 12.4603 103.925 12.0737 104.615 12.1296C105.149 12.0896 105.672 12.2939 106.037 12.6849C106.402 13.0758 106.569 13.611 106.491 14.1394V17.6374H105.421V14.4072C105.421 13.5388 105.043 13.107 104.252 13.107C103.89 13.0901 103.538 13.2319 103.289 13.4951C103.041 13.7583 102.92 14.1167 102.958 14.4763V17.6374H101.889V12.2339Z" fill="white"/>
<path d="M112.533 10.8885V12.2585H113.707V13.1567H112.533V15.9352C112.533 16.5012 112.767 16.7491 113.3 16.7491C113.436 16.7486 113.572 16.7404 113.707 16.7245V17.6127C113.515 17.647 113.321 17.6652 113.126 17.6672C111.936 17.6672 111.463 17.25 111.463 16.2083V13.1567H110.603V12.2584H111.463V10.8885H112.533Z" fill="white"/>
<path d="M115.168 10.1245H116.228V13.1022H116.313C116.604 12.4647 117.265 12.0776 117.965 12.1343C118.496 12.1055 119.012 12.3143 119.373 12.7038C119.734 13.0934 119.902 13.6231 119.831 14.1487V17.6374H118.76V14.4118C118.76 13.5487 118.357 13.1116 117.602 13.1116C117.23 13.0812 116.863 13.2161 116.6 13.4802C116.337 13.7443 116.204 14.1107 116.237 14.4815V17.6374H115.168L115.168 10.1245Z" fill="white"/>
<path fill-rule="evenodd" clip-rule="evenodd" d="M123.719 17.7417C124.778 17.8562 125.767 17.1977 126.067 16.1784L125.037 16.1784C124.78 16.6373 124.271 16.8961 123.748 16.8335C123.344 16.8379 122.958 16.6725 122.683 16.3778C122.408 16.083 122.271 15.6864 122.305 15.2855V15.2257H126.131V14.8536C126.131 13.1568 125.222 12.1296 123.714 12.1296C122.99 12.1234 122.298 12.431 121.819 12.9726C121.339 13.5143 121.119 14.2367 121.216 14.9526C121.117 15.6667 121.338 16.3879 121.82 16.925C122.302 17.4621 122.996 17.7607 123.719 17.7417ZM125.042 14.437H122.305C122.3 14.0644 122.446 13.7056 122.71 13.4421C122.975 13.1785 123.334 13.0325 123.708 13.0372C124.077 13.0288 124.432 13.176 124.686 13.4426C124.94 13.7092 125.069 14.0703 125.042 14.437Z" fill="white"/>
</svg>
