<svg width="162" height="48" viewBox="0 0 162 48" fill="none" xmlns="http://www.w3.org/2000/svg">
<path fill-rule="evenodd" clip-rule="evenodd" d="M155.998 48H6.00221C2.69414 48 0 45.2948 0 42V6C0 2.69327 2.69414 0 6.00221 0H155.998C159.303 0 162 2.69327 162 6V42C162 45.2948 159.303 48 155.998 48Z" fill="black"/>
<path fill-rule="evenodd" clip-rule="evenodd" d="M155.998 0.960598C158.772 0.960598 161.043 3.22594 161.043 6V42C161.043 44.7741 158.787 47.0394 155.998 47.0394H6.00221C3.2276 47.0394 0.956658 44.7741 0.956658 42V6C0.956658 3.22594 3.2127 0.960598 6.00221 0.960598C6.00221 0.960598 155.998 0.960598 155.998 0.960598ZM155.998 0H6.00221C2.69414 0 0 2.70524 0 6V42C0 45.3067 2.69414 48 6.00221 48H155.998C159.303 48 162 45.3067 162 42V6C162 2.70524 159.303 0 155.998 0Z" fill="#A6A6A6"/>
<path d="M85.3418 15.8783C84.26 15.8783 83.348 15.4982 82.6268 14.7501C81.9116 14.0229 81.5122 13.0204 81.5301 11.997C81.5301 10.9047 81.8996 9.98 82.6268 9.24683C83.3451 8.4987 84.257 8.11865 85.3388 8.11865C86.4088 8.11865 87.3207 8.4987 88.0538 9.24683C88.781 10.0039 89.1506 10.9286 89.1506 11.997C89.1386 13.0922 88.7691 14.0169 88.0538 14.7471C87.3356 15.5012 86.4237 15.8783 85.3418 15.8783ZM53.1522 15.8783C52.0942 15.8783 51.1763 15.5042 50.4253 14.765C49.6802 14.0289 49.3018 13.0982 49.3018 11.9999C49.3018 10.9017 49.6802 9.97102 50.4253 9.23486C51.1614 8.49571 52.0793 8.12165 53.1522 8.12165C53.6768 8.12165 54.1864 8.22638 54.6751 8.43885C55.155 8.64534 55.5454 8.92663 55.8344 9.27077L55.906 9.35756L55.0983 10.1536L55.0149 10.0548C54.5589 9.51017 53.948 9.24384 53.1403 9.24384C52.4191 9.24384 51.7903 9.5012 51.2717 10.0099C50.7502 10.5216 50.4849 11.192 50.4849 12.0029C50.4849 12.8139 50.7502 13.4842 51.2717 13.996C51.7903 14.5047 52.4191 14.762 53.1403 14.762C53.9092 14.762 54.5559 14.5047 55.0596 13.996C55.3576 13.6967 55.5424 13.2778 55.6079 12.7481H53.0181V11.6289H56.7196L56.7345 11.7306C56.7613 11.9192 56.7881 12.1137 56.7881 12.2932C56.7881 13.3256 56.4782 14.1605 55.8642 14.777C55.1669 15.5072 54.2549 15.8783 53.1522 15.8783ZM95.9515 15.7196H94.8101L91.3142 10.1027L91.344 11.1142V15.7167H90.2026V8.28025H91.505L91.5407 8.33711L94.8279 13.6279L94.7981 12.6194V8.28025H95.9515V15.7196V15.7196ZM76.7647 15.7196H75.6084V9.39945H73.6026V8.28025H78.7674V9.39945H76.7617V15.7196H76.7647ZM72.6609 15.7196H71.5075V8.28025H72.6609V15.7196ZM66.1789 15.7196H65.0255V9.39945H63.0198V8.28025H68.1846V9.39945H66.1789V15.7196ZM62.2897 15.7077H57.867V8.28025H62.2897V9.39945H59.0233V11.4403H61.9708V12.5476H59.0233V14.5885H62.2897V15.7077ZM83.4732 13.981C83.9888 14.4987 84.6146 14.7591 85.3418 14.7591C86.0899 14.7591 86.7008 14.5047 87.2104 13.981C87.7171 13.4723 87.9734 12.8049 87.9734 11.9999C87.9734 11.195 87.7171 10.5246 87.2134 10.0189C86.6978 9.5012 86.069 9.24085 85.3448 9.24085C84.5968 9.24085 83.9858 9.49521 83.4792 10.0189C82.9725 10.5276 82.7162 11.195 82.7162 11.9999C82.7162 12.8049 82.9695 13.4753 83.4732 13.981Z" fill="white"/>
<path fill-rule="evenodd" clip-rule="evenodd" d="M81.4227 26.1067C78.6064 26.1067 76.3236 28.2523 76.3236 31.2119C76.3236 34.1446 78.6213 36.3171 81.4227 36.3171C84.2391 36.3171 86.5219 34.1565 86.5219 31.2119C86.5219 28.2523 84.2391 26.1067 81.4227 26.1067ZM81.4227 34.2942C79.882 34.2942 78.5558 33.0134 78.5558 31.1999C78.5558 29.3595 79.8849 28.1057 81.4227 28.1057C82.9635 28.1057 84.2897 29.3595 84.2897 31.1999C84.2927 33.0254 82.9635 34.2942 81.4227 34.2942ZM70.2975 26.1067C67.4812 26.1067 65.1983 28.2523 65.1983 31.2119C65.1983 34.1446 67.4961 36.3171 70.2975 36.3171C73.1138 36.3171 75.3967 34.1565 75.3967 31.2119C75.3967 28.2523 73.1109 26.1067 70.2975 26.1067ZM70.2975 34.2942C68.7567 34.2942 67.4305 33.0134 67.4305 31.1999C67.4305 29.3595 68.7597 28.1057 70.2975 28.1057C71.8383 28.1057 73.1645 29.3595 73.1645 31.1999C73.1645 33.0254 71.8383 34.2942 70.2975 34.2942ZM57.0593 27.6658V29.8264H62.224C62.0661 31.0383 61.6667 31.9331 61.0558 32.5466C60.2988 33.3067 59.1305 34.1326 57.0712 34.1326C53.8972 34.1326 51.4147 31.559 51.4147 28.372C51.4147 25.185 53.8972 22.6114 57.0712 22.6114C58.7848 22.6114 60.0335 23.2907 60.9604 24.1585L62.4863 22.6264C61.1988 21.3875 59.4852 20.4388 57.0831 20.4388C52.729 20.4388 49.0752 23.9999 49.0752 28.36C49.0752 32.7321 52.726 36.2812 57.0831 36.2812C59.4345 36.2812 61.1988 35.5092 62.5936 34.0548C64.0152 32.6274 64.4652 30.6134 64.4652 28.9885C64.4652 28.4827 64.4264 28.0279 64.346 27.6418H57.0563C57.0593 27.6388 57.0593 27.6658 57.0593 27.6658ZM111.207 29.3476C110.781 28.2014 109.494 26.0947 106.853 26.0947C104.236 26.0947 102.061 28.1625 102.061 31.1999C102.061 34.0668 104.213 36.3052 107.106 36.3052C109.431 36.3052 110.784 34.8777 111.341 34.0398L109.616 32.8787C109.044 33.7316 108.248 34.2912 107.118 34.2912C105.977 34.2912 105.178 33.7705 104.648 32.7441L111.446 29.9161C111.446 29.9191 111.207 29.3476 111.207 29.3476ZM104.275 31.0533C104.222 29.0812 105.801 28.0787 106.931 28.0787C107.822 28.0787 108.564 28.5186 108.817 29.159L104.275 31.0533ZM98.7529 35.9999H100.985V21.0014H98.7529V35.9999ZM95.0872 27.2408H95.0067C94.503 26.6393 93.5464 26.0947 92.3245 26.0947C89.7883 26.0947 87.4518 28.3361 87.4518 31.2149C87.4518 34.0817 89.7764 36.2962 92.3245 36.2962C93.5315 36.2962 94.503 35.7486 95.0067 35.1351H95.0872V35.8683C95.0872 37.8164 94.05 38.8668 92.3781 38.8668C91.0102 38.8668 90.1608 37.8792 89.8151 37.0533L87.875 37.8673C88.4323 39.2139 89.9194 40.8807 92.3751 40.8807C94.9918 40.8807 97.2091 39.3336 97.2091 35.56V26.3999H95.0991V27.2408C95.1021 27.2408 95.0872 27.2408 95.0872 27.2408ZM92.5242 34.2942C90.9834 34.2942 89.6959 33.0014 89.6959 31.2149C89.6959 29.4134 90.9834 28.1087 92.5242 28.1087C94.05 28.1087 95.2332 29.4284 95.2332 31.2149C95.2481 33.0014 94.053 34.2942 92.5242 34.2942ZM121.659 21.0014H116.321V35.9999H118.554V30.3201H121.662C124.133 30.3201 126.562 28.5216 126.562 25.6668C126.562 22.8119 124.142 21.0014 121.659 21.0014ZM121.725 28.2254H118.551V23.0782H121.725C123.396 23.0782 124.341 24.4638 124.341 25.6518C124.341 26.8279 123.385 28.2254 121.725 28.2254ZM135.508 26.0797C133.887 26.0797 132.215 26.8009 131.524 28.372L133.502 29.1979C133.929 28.372 134.709 28.0907 135.535 28.0907C136.691 28.0907 137.86 28.785 137.886 30.0239V30.1825C137.487 29.9551 136.611 29.6079 135.562 29.6079C133.425 29.6079 131.258 30.781 131.258 32.9805C131.258 34.9945 133.011 36.2872 134.963 36.2872C136.462 36.2872 137.287 35.6079 137.803 34.8209H137.883V35.982H140.035V30.2363C140.035 27.561 138.056 26.0797 135.508 26.0797ZM135.228 34.2942C134.498 34.2942 133.476 33.9351 133.476 33.0134C133.476 31.8523 134.751 31.4124 135.839 31.4124C136.822 31.4124 137.287 31.6249 137.872 31.9181C137.711 33.2648 136.578 34.2822 135.228 34.2942ZM147.885 26.3999L145.322 32.9057H145.242L142.586 26.3999H140.184L144.169 35.4942L141.898 40.5486H144.222L150.353 26.3999H147.885ZM127.792 35.9999H130.025V21.0014H127.792V35.9999Z" fill="white"/>
<path fill-rule="evenodd" clip-rule="evenodd" d="M12.4692 9.04052C12.1235 9.41458 11.9238 9.98615 11.9238 10.7343V37.2689C11.9238 38.0171 12.1235 38.5886 12.4811 38.9477L12.5735 39.0285L27.3794 24.1617V23.8295L12.5616 8.95972L12.4692 9.04052Z" fill="url(#paint0_linear_8_178)"/>
<path fill-rule="evenodd" clip-rule="evenodd" d="M32.3054 29.1321L27.3672 24.1735V23.8264L32.3054 18.8678L32.4127 18.9336L38.254 22.2673C39.9259 23.2129 39.9259 24.775 38.254 25.7326L32.4127 29.0663L32.3054 29.1321Z" fill="url(#paint1_linear_8_178)"/>
<path fill-rule="evenodd" clip-rule="evenodd" d="M32.4135 29.0663L27.368 24L12.4697 38.9596C13.0151 39.5461 13.93 39.612 14.9523 39.0404L32.4135 29.0663Z" fill="url(#paint2_linear_8_178)"/>
<path fill-rule="evenodd" clip-rule="evenodd" d="M32.4135 18.9337L14.9523 8.97458C13.93 8.38805 13.0121 8.46884 12.4697 9.05538L27.368 24L32.4135 18.9337Z" fill="url(#paint3_linear_8_178)"/>
<path opacity="0.2" fill-rule="evenodd" clip-rule="evenodd" d="M32.306 28.9586L14.964 38.8519C13.9954 39.4115 13.1311 39.3726 12.5738 38.8639L12.4814 38.9566L12.5738 39.0374C13.1311 39.5432 13.9954 39.5851 14.964 39.0254L32.4252 29.0663L32.306 28.9586Z" fill="black"/>
<path opacity="0.12" fill-rule="evenodd" clip-rule="evenodd" d="M38.2545 25.5591L32.291 28.9586L32.3983 29.0663L38.2396 25.7327C39.077 25.2539 39.4883 24.6254 39.4883 24C39.4376 24.5746 39.0115 25.1192 38.2545 25.5591Z" fill="black"/>
<path opacity="0.25" fill-rule="evenodd" clip-rule="evenodd" d="M14.9518 9.14825L38.2543 22.441C39.0113 22.8689 39.4374 23.4285 39.503 24.0001C39.503 23.3747 39.0917 22.7463 38.2543 22.2674L14.9518 8.97468C13.2798 8.01408 11.9238 8.81608 11.9238 10.7343V10.9078C11.9238 8.98665 13.2798 8.19962 14.9518 9.14825Z" fill="white"/>
<defs>
<linearGradient id="paint0_linear_8_178" x1="26.0513" y1="10.448" x2="2.32202" y2="16.7448" gradientUnits="userSpaceOnUse">
<stop stop-color="#00A0FF"/>
<stop offset="0.00657" stop-color="#00A1FF"/>
<stop offset="0.2601" stop-color="#00BEFF"/>
<stop offset="0.5122" stop-color="#00D2FF"/>
<stop offset="0.7604" stop-color="#00DFFF"/>
<stop offset="1" stop-color="#00E3FF"/>
</linearGradient>
<linearGradient id="paint1_linear_8_178" x1="40.4343" y1="24" x2="11.5172" y2="24" gradientUnits="userSpaceOnUse">
<stop stop-color="#FFE000"/>
<stop offset="0.4087" stop-color="#FFBD00"/>
<stop offset="0.7754" stop-color="#FFA500"/>
<stop offset="1" stop-color="#FF9C00"/>
</linearGradient>
<linearGradient id="paint2_linear_8_178" x1="29.6699" y1="26.7568" x2="10.5146" y2="58.8646" gradientUnits="userSpaceOnUse">
<stop stop-color="#FF3A44"/>
<stop offset="1" stop-color="#C31162"/>
</linearGradient>
<linearGradient id="paint3_linear_8_178" x1="8.71819" y1="0.214566" x2="17.2642" y2="14.5544" gradientUnits="userSpaceOnUse">
<stop stop-color="#32A071"/>
<stop offset="0.0685" stop-color="#2DA771"/>
<stop offset="0.4762" stop-color="#15CF74"/>
<stop offset="0.8009" stop-color="#06E775"/>
<stop offset="1" stop-color="#00F076"/>
</linearGradient>
</defs>
</svg>
